<svg width="46" height="46" viewBox="0 0 46 46" fill="none" xmlns="http://www.w3.org/2000/svg">
<path d="M13.671 15.3659C14.0189 14.9981 14.5797 14.9524 14.9798 15.2396L15.0847 15.3262L22.1092 21.9674L28.7542 14.9412C29.1337 14.5399 29.7667 14.5223 30.1679 14.9018C30.5357 15.2496 30.5812 15.8105 30.294 16.2106L30.2073 16.3154L23.5622 23.3416L30.5864 29.9811C30.9877 30.3605 31.0057 30.9935 30.6262 31.3947C30.2783 31.7626 29.7175 31.8083 29.3174 31.521L29.2124 31.4344L22.188 24.7947L15.5467 31.8169C15.1672 32.2182 14.5342 32.2358 14.133 31.8563C13.7652 31.5085 13.7197 30.9476 14.0069 30.5475L14.0936 30.4427L20.7349 23.4204L13.7108 16.7795C13.3094 16.4001 13.2915 15.7671 13.671 15.3659Z" fill="white"/>
</svg>
